<svg version="1.2" xmlns="http://www.w3.org/2000/svg" viewBox="0 0 324 864" width="324" height="864"><defs><filter x="-50%" y="-50%" width="200%" height="200%" id="f1" ><feDropShadow dx="-1.8369701987210297e-16" dy="3" stdDeviation="2.0833333333333335" flood-color="#fe3e57" flood-opacity=".4"/></filter><filter x="-50%" y="-50%" width="200%" height="200%" id="f2" ><feDropShadow dx="-1.8369701987210297e-16" dy="3" stdDeviation="2.0833333333333335" flood-color="#34c3ff" flood-opacity=".4"/></filter><filter x="-50%" y="-50%" width="200%" height="200%" id="f3" ><feDropShadow dx="-1.8369701987210297e-16" dy="3" stdDeviation="2.0833333333333335" flood-color="#34c3ff" flood-opacity=".4"/></filter><filter x="-50%" y="-50%" width="200%" height="200%" id="f4" ><feDropShadow dx="-1.8369701987210297e-16" dy="3" stdDeviation="2.0833333333333335" flood-color="#5800e4" flood-opacity=".4"/></filter><filter x="-50%" y="-50%" width="200%" height="200%" id="f5" ><feDropShadow dx="-1.8369701987210297e-16" dy="3" stdDeviation="2.0833333333333335" flood-color="#ffb534" flood-opacity=".4"/></filter><filter x="-50%" y="-50%" width="200%" height="200%" id="f6" ><feDropShadow dx="-1.8369701987210297e-16" dy="3" stdDeviation="2.0833333333333335" flood-color="#fe3e57" flood-opacity=".4"/></filter></defs><style>.a{fill:none;stroke:#ececec}.b{filter:url(#f1);fill:none;stroke:#fe3e57;stroke-width:2}.c{filter:url(#f2);fill:none;stroke:#34c3ff;stroke-width:2}.d{filter:url(#f3);fill:#34c3ff}.e{filter:url(#f4);fill:#5800e4}.f{filter:url(#f5);fill:#ffb534}.g{filter:url(#f6);fill:#fe3e57}</style><path class="a" d="m323.1 853.1c-26.8 44.8-187.7-54.5-276.7-185.6-89.1-131.1-28.9-206.1 7.7-231.8 36.6-25.7 63.8-54.6 89.3-100.7 25.5-46.2 41.9-81.5 76-208.8 34-127.2 61.5-126.2 61.5-126.2"/><ellipse class="b" cx="144.5" cy="573" rx="17.5" ry="18"/><circle class="c" cx="105.5" cy="230.5" r="5.5"/><path class="d" d="m196.9 698.5l-3.8-3.9c-0.4-0.5-0.4-1.3 0-1.8 0.5-0.5 1.2-0.5 1.7 0l3.8 4 3.8-4c0.5-0.5 1.2-0.5 1.7 0 0.4 0.5 0.4 1.3 0 1.8l-3.8 3.9 3.8 4c0.4 0.5 0.4 1.2 0 1.7-0.5 0.5-1.2 0.5-1.7 0l-3.8-3.9-3.8 3.9c-0.5 0.5-1.2 0.5-1.7 0-0.4-0.5-0.4-1.2 0-1.7z"/><path class="e" d="m204 444.3l5.6 5.7-5.6 5.7-5.7-5.7z"/><path class="f" d="m32.3 367.2l-3.8-4c-0.5-0.4-0.5-1.2 0-1.7 0.4-0.5 1.2-0.5 1.7 0l3.8 3.9 3.7-3.9c0.5-0.5 1.3-0.5 1.7 0 0.5 0.5 0.5 1.3 0 1.7l-3.8 4 3.8 4c0.5 0.4 0.5 1.2 0 1.7-0.4 0.5-1.2 0.5-1.7 0l-3.7-4-3.8 4c-0.5 0.5-1.3 0.5-1.7 0-0.5-0.5-0.5-1.3 0-1.7z"/><path class="g" d="m172.6 79.5l-3.8-3.9c-0.5-0.5-0.5-1.3 0-1.8 0.4-0.4 1.2-0.4 1.6 0l3.8 4 3.8-4c0.5-0.4 1.2-0.4 1.7 0 0.5 0.5 0.5 1.3 0 1.8l-3.8 3.9 3.8 4c0.5 0.5 0.5 1.3 0 1.8-0.5 0.4-1.2 0.4-1.7 0l-3.8-4-3.8 4c-0.4 0.4-1.2 0.4-1.6 0-0.5-0.5-0.5-1.3 0-1.8z"/></svg>