<svg version="1.2" xmlns="http://www.w3.org/2000/svg" viewBox="0 0 1627 582" width="1627" height="582"><defs><filter x="-50%" y="-50%" width="200%" height="200%" id="f1" ><feDropShadow dx="-1.8369701987210297e-16" dy="3" stdDeviation="4.166666666666667" flood-color="#fe3e57" flood-opacity=".5"/></filter></defs><style>.a{fill:#fe3e57}.b{filter:url(#f1);fill:#fe3e57}.c{fill:#34c3ff}</style><path class="a" d="m1444.5 51.3c0-1 0.8-1.8 1.8-1.8 0.9 0 1.7 0.8 1.7 1.8 0 0.9-0.8 1.7-1.7 1.7-1 0-1.8-0.8-1.8-1.7zm-13.7 0c0-1 0.8-1.8 1.7-1.8 1 0 1.8 0.8 1.8 1.8 0 0.9-0.8 1.7-1.8 1.7-0.9 0-1.7-0.8-1.7-1.7zm-13.5 0c0-1 0.8-1.8 1.8-1.8 0.9 0 1.7 0.8 1.7 1.8 0 0.9-0.8 1.7-1.7 1.7-1 0-1.8-0.8-1.8-1.7zm-13.7 0c0-1 0.8-1.8 1.7-1.8 1 0 1.8 0.8 1.8 1.8 0 0.9-0.8 1.7-1.8 1.7-0.9 0-1.7-0.8-1.7-1.7zm-13.5 0c0-1 0.8-1.8 1.8-1.8 0.9 0 1.7 0.8 1.7 1.8 0 0.9-0.8 1.7-1.7 1.7-1 0-1.8-0.8-1.8-1.7zm-13.7 0c0-1 0.8-1.8 1.7-1.8 1 0 1.8 0.8 1.8 1.8 0 0.9-0.8 1.7-1.8 1.7-0.9 0-1.7-0.8-1.7-1.7zm-13.5 0c0-1 0.8-1.8 1.8-1.8 0.9 0 1.7 0.8 1.7 1.8 0 0.9-0.8 1.7-1.7 1.7-1 0-1.8-0.8-1.8-1.7zm-13.7 0c0-1 0.8-1.8 1.7-1.8 1 0 1.8 0.8 1.8 1.8 0 0.9-0.8 1.7-1.8 1.7-0.9 0-1.7-0.8-1.7-1.7zm-13.5 0c0-1 0.8-1.8 1.8-1.8 0.9 0 1.7 0.8 1.7 1.8 0 0.9-0.8 1.7-1.7 1.7-1 0-1.8-0.8-1.8-1.7zm-13.7 0c0-1 0.8-1.8 1.7-1.8 1 0 1.8 0.8 1.8 1.8 0 0.9-0.8 1.7-1.8 1.7-0.9 0-1.7-0.8-1.7-1.7zm122.5-16.5c0-1 0.8-1.8 1.8-1.8 0.9 0 1.7 0.8 1.7 1.8 0 0.9-0.8 1.7-1.7 1.7-1 0-1.8-0.8-1.8-1.7zm-13.7 0c0-1 0.8-1.8 1.7-1.8 1 0 1.8 0.8 1.8 1.8 0 0.9-0.8 1.7-1.8 1.7-0.9 0-1.7-0.8-1.7-1.7zm-13.5 0c0-1 0.8-1.8 1.8-1.8 0.9 0 1.7 0.8 1.7 1.8 0 0.9-0.8 1.7-1.7 1.7-1 0-1.8-0.8-1.8-1.7zm-13.7 0c0-1 0.8-1.8 1.7-1.8 1 0 1.8 0.8 1.8 1.8 0 0.9-0.8 1.7-1.8 1.7-0.9 0-1.7-0.8-1.7-1.7zm-13.5 0c0-1 0.8-1.8 1.8-1.8 0.9 0 1.7 0.8 1.7 1.8 0 0.9-0.8 1.7-1.7 1.7-1 0-1.8-0.8-1.8-1.7zm-13.7 0c0-1 0.8-1.8 1.7-1.8 1 0 1.8 0.8 1.8 1.8 0 0.9-0.8 1.7-1.8 1.7-0.9 0-1.7-0.8-1.7-1.7zm-13.5 0c0-1 0.8-1.8 1.8-1.8 0.9 0 1.7 0.8 1.7 1.8 0 0.9-0.8 1.7-1.7 1.7-1 0-1.8-0.8-1.8-1.7zm-13.7 0c0-1 0.8-1.8 1.7-1.8 1 0 1.8 0.8 1.8 1.8 0 0.9-0.8 1.7-1.8 1.7-0.9 0-1.7-0.8-1.7-1.7zm-13.5 0c0-1 0.8-1.8 1.8-1.8 0.9 0 1.7 0.8 1.7 1.8 0 0.9-0.8 1.7-1.7 1.7-1 0-1.8-0.8-1.8-1.7zm-13.7 0c0-1 0.8-1.8 1.7-1.8 1 0 1.8 0.8 1.8 1.8 0 0.9-0.8 1.7-1.8 1.7-0.9 0-1.7-0.8-1.7-1.7zm122.5-16.6c0-0.9 0.8-1.7 1.8-1.7 0.9 0 1.7 0.8 1.7 1.7 0 1-0.8 1.8-1.7 1.8-1 0-1.8-0.8-1.8-1.8zm-13.7 0c0-0.9 0.8-1.7 1.7-1.7 1 0 1.8 0.8 1.8 1.7 0 1-0.8 1.8-1.8 1.8-0.9 0-1.7-0.8-1.7-1.8zm-13.5 0c0-0.9 0.8-1.7 1.8-1.7 0.9 0 1.7 0.8 1.7 1.7 0 1-0.8 1.8-1.7 1.8-1 0-1.8-0.8-1.8-1.8zm-13.7 0c0-0.9 0.8-1.7 1.7-1.7 1 0 1.8 0.8 1.8 1.7 0 1-0.8 1.8-1.8 1.8-0.9 0-1.7-0.8-1.7-1.8zm-13.5 0c0-0.9 0.8-1.7 1.8-1.7 0.9 0 1.7 0.8 1.7 1.7 0 1-0.8 1.8-1.7 1.8-1 0-1.8-0.8-1.8-1.8zm-13.7 0c0-0.9 0.8-1.7 1.7-1.7 1 0 1.8 0.8 1.8 1.7 0 1-0.8 1.8-1.8 1.8-0.9 0-1.7-0.8-1.7-1.8zm-13.5 0c0-0.9 0.8-1.7 1.8-1.7 0.9 0 1.7 0.8 1.7 1.7 0 1-0.8 1.8-1.7 1.8-1 0-1.8-0.8-1.8-1.8zm-13.7 0c0-0.9 0.8-1.7 1.7-1.7 1 0 1.8 0.8 1.8 1.7 0 1-0.8 1.8-1.8 1.8-0.9 0-1.7-0.8-1.7-1.8zm-13.5 0c0-0.9 0.8-1.7 1.8-1.7 0.9 0 1.7 0.8 1.7 1.7 0 1-0.8 1.8-1.7 1.8-1 0-1.8-0.8-1.8-1.8zm-13.7 0c0-0.9 0.8-1.7 1.7-1.7 1 0 1.8 0.8 1.8 1.7 0 1-0.8 1.8-1.8 1.8-0.9 0-1.7-0.8-1.7-1.8zm122.5-16.5c0-0.9 0.8-1.7 1.8-1.7 0.9 0 1.7 0.8 1.7 1.7 0 1-0.8 1.8-1.7 1.8-1 0-1.8-0.8-1.8-1.8zm-13.7 0c0-0.9 0.8-1.7 1.7-1.7 1 0 1.8 0.8 1.8 1.7 0 1-0.8 1.8-1.8 1.8-0.9 0-1.7-0.8-1.7-1.8zm-13.5 0c0-0.9 0.8-1.7 1.8-1.7 0.9 0 1.7 0.8 1.7 1.7 0 1-0.8 1.8-1.7 1.8-1 0-1.8-0.8-1.8-1.8zm-13.7 0c0-0.9 0.8-1.7 1.7-1.7 1 0 1.8 0.8 1.8 1.7 0 1-0.8 1.8-1.8 1.8-0.9 0-1.7-0.8-1.7-1.8zm-13.5 0c0-0.9 0.8-1.7 1.8-1.7 0.9 0 1.7 0.8 1.7 1.7 0 1-0.8 1.8-1.7 1.8-1 0-1.8-0.8-1.8-1.8zm-13.7 0c0-0.9 0.8-1.7 1.7-1.7 1 0 1.8 0.8 1.8 1.7 0 1-0.8 1.8-1.8 1.8-0.9 0-1.7-0.8-1.7-1.8zm-13.5 0c0-0.9 0.8-1.7 1.8-1.7 0.9 0 1.7 0.8 1.7 1.7 0 1-0.8 1.8-1.7 1.8-1 0-1.8-0.8-1.8-1.8zm-13.7 0c0-0.9 0.8-1.7 1.7-1.7 1 0 1.8 0.8 1.8 1.7 0 1-0.8 1.8-1.8 1.8-0.9 0-1.7-0.8-1.7-1.8zm-13.5 0c0-0.9 0.8-1.7 1.8-1.7 0.9 0 1.7 0.8 1.7 1.7 0 1-0.8 1.8-1.7 1.8-1 0-1.8-0.8-1.8-1.8zm-13.7 0c0-0.9 0.8-1.7 1.7-1.7 1 0 1.8 0.8 1.8 1.7 0 1-0.8 1.8-1.8 1.8-0.9 0-1.7-0.8-1.7-1.8z"/><path class="b" d="m1617 545.5c0 13-10.5 23.5-23.5 23.5-13 0-23.5-10.5-23.5-23.5 0-13 10.5-23.5 23.5-23.5 13 0 23.5 10.5 23.5 23.5zm-23.5 18.7c-10.3 0-18.7-8.4-18.7-18.7 0-10.3 8.4-18.7 18.7-18.7 10.3 0 18.7 8.4 18.7 18.7 0 10.3-8.4 18.7-18.7 18.7zm5.6-18.7c0 3.1-2.5 5.6-5.6 5.6-3.1 0-5.6-2.5-5.6-5.6 0-3.1 2.5-5.6 5.6-5.6 3.1 0 5.6 2.5 5.6 5.6z"/><path class="c" d="m83.6 243.9c0 1.2-1 2.2-2.2 2.2-1.2 0-2.2-1-2.2-2.2 0-1.2 1-2.1 2.2-2.1 1.2 0 2.2 0.9 2.2 2.1zm-14.4 0c0 1.2-1 2.2-2.2 2.2-1.2 0-2.2-1-2.2-2.2 0-1.2 1-2.1 2.2-2.1 1.2 0 2.2 0.9 2.2 2.1zm0-14.4c0 1.2-1 2.2-2.2 2.2-1.2 0-2.2-1-2.2-2.2 0-1.2 1-2.1 2.2-2.1 1.2 0 2.2 0.9 2.2 2.1zm-14.5 0c0 1.2-0.9 2.2-2.1 2.2q0 0 0 0c-1.2 0-2.2-1-2.2-2.2 0-1.2 1-2.1 2.2-2.1q0 0 0 0c1.2 0 2.1 0.9 2.1 2.1zm21.7 21.6c0 1.2-1 2.2-2.2 2.2-1.2 0-2.2-1-2.2-2.2 0-1.2 1-2.1 2.2-2.1 1.2 0 2.2 0.9 2.2 2.1zm14.4 0c0 1.2-1 2.2-2.2 2.2-1.2 0-2.2-1-2.2-2.2 0-1.2 1-2.1 2.2-2.1 1.2 0 2.2 0.9 2.2 2.1zm-14.4-14.4c0 1.2-1 2.2-2.2 2.2-1.2 0-2.2-1-2.2-2.2 0-1.2 1-2.1 2.2-2.1 1.2 0 2.2 0.9 2.2 2.1zm-14.5 0c0 1.2-0.9 2.2-2.1 2.2-1.2 0-2.2-1-2.2-2.2 0-1.2 1-2.1 2.2-2.1 1.2 0 2.1 0.9 2.1 2.1zm36.1 36c0 1.2-1 2.1-2.2 2.1-1.2 0-2.2-0.9-2.2-2.1 0-1.2 1-2.2 2.2-2.2 1.2 0 2.2 1 2.2 2.2zm-14.4 0c0 1.2-1 2.1-2.2 2.1-1.2 0-2.2-0.9-2.2-2.1 0-1.2 1-2.2 2.2-2.2 1.2 0 2.2 1 2.2 2.2zm-14.4 0c0 1.2-1 2.1-2.2 2.1-1.2 0-2.2-0.9-2.2-2.1 0-1.2 1-2.2 2.2-2.2 1.2 0 2.2 1 2.2 2.2zm28.8-14.4c0 1.2-1 2.2-2.2 2.2-1.2 0-2.2-1-2.2-2.2 0-1.2 1-2.2 2.2-2.2 1.2 0 2.2 1 2.2 2.2zm-14.4 0c0 1.2-1 2.2-2.2 2.2-1.2 0-2.2-1-2.2-2.2 0-1.2 1-2.2 2.2-2.2 1.2 0 2.2 1 2.2 2.2zm-14.4 0c0 1.2-1 2.2-2.2 2.2-1.2 0-2.2-1-2.2-2.2 0-1.2 1-2.2 2.2-2.2 1.2 0 2.2 1 2.2 2.2zm-14.5 0c0 1.2-0.9 2.2-2.1 2.2q0 0 0 0c-1.2 0-2.2-1-2.2-2.2 0-1.2 1-2.2 2.2-2.2q0 0 0 0c1.2 0 2.1 1 2.1 2.2zm21.7 21.6c0 1.2-1 2.1-2.2 2.1-1.2 0-2.2-0.9-2.2-2.1 0-1.2 1-2.2 2.2-2.2 1.2 0 2.2 1 2.2 2.2zm14.4 0c0 1.2-1 2.1-2.2 2.1-1.2 0-2.2-0.9-2.2-2.1 0-1.2 1-2.2 2.2-2.2 1.2 0 2.2 1 2.2 2.2zm-14.4-14.4c0 1.2-1 2.2-2.2 2.2-1.2 0-2.2-1-2.2-2.2 0-1.2 1-2.2 2.2-2.2 1.2 0 2.2 1 2.2 2.2zm12.2 2.2c-1.2 0-2.2-1-2.2-2.2 0-1.2 1-2.2 2.2-2.2 1.2 0 2.2 1 2.2 2.2 0 1.2-1 2.2-2.2 2.2zm16.6-2.2c0 1.2-1 2.2-2.2 2.2-1.2 0-2.2-1-2.2-2.2 0-1.2 1-2.2 2.2-2.2 1.2 0 2.2 1 2.2 2.2zm-43.3 0c0 1.2-0.9 2.2-2.1 2.2-1.2 0-2.2-1-2.2-2.2 0-1.2 1-2.2 2.2-2.2 1.2 0 2.1 1 2.1 2.2zm7.3 36c0 1.1-1 2.1-2.2 2.1-1.2 0-2.2-1-2.2-2.1 0-1.2 1-2.2 2.2-2.2 1.2 0 2.2 1 2.2 2.2zm14.4-14.4c0 1.2-1 2.1-2.2 2.1-1.2 0-2.2-0.9-2.2-2.1 0-1.2 1-2.2 2.2-2.2 1.2 0 2.2 1 2.2 2.2zm-14.4 0c0 1.2-1 2.1-2.2 2.1-1.2 0-2.2-0.9-2.2-2.1 0-1.2 1-2.2 2.2-2.2 1.2 0 2.2 1 2.2 2.2zm-14.5 0c0 1.2-0.9 2.1-2.1 2.1q0 0 0 0c-1.2 0-2.2-0.9-2.2-2.1 0-1.2 1-2.2 2.2-2.2q0 0 0 0c1.2 0 2.1 1 2.1 2.2zm21.7 7.2c0 1.2-1 2.1-2.2 2.1-1.2 0-2.2-0.9-2.2-2.1 0-1.2 1-2.2 2.2-2.2 1.2 0 2.2 1 2.2 2.2zm-14.5 0c0 1.2-0.9 2.1-2.1 2.1-1.2 0-2.2-0.9-2.2-2.1 0-1.2 1-2.2 2.2-2.2 1.2 0 2.1 1 2.1 2.2zm-7.2 21.5c0 1.2-0.9 2.2-2.1 2.2q0 0 0 0c-1.2 0-2.2-1-2.2-2.2 0-1.1 1-2.1 2.2-2.1q0 0 0 0c1.2 0 2.1 1 2.1 2.1zm-4.3-100.6c0-1.2 1-2.2 2.2-2.2 1.2 0 2.1 1 2.1 2.2 0 1.1-0.9 2.1-2.1 2.1-1.2 0-2.2-1-2.2-2.1zm-2.9 7.1c0 1.2-0.9 2.2-2.1 2.2-1.2 0-2.2-1-2.2-2.2 0-1.1 1-2.1 2.2-2.1 1.2 0 2.1 1 2.1 2.1zm10.1 0c0-1.1 1-2.1 2.2-2.1 1.2 0 2.1 1 2.1 2.1 0 1.2-0.9 2.2-2.1 2.2-1.2 0-2.2-1-2.2-2.2zm-7.2 21.6c0-1.2 1-2.1 2.2-2.1 1.2 0 2.1 0.9 2.1 2.1 0 1.2-0.9 2.2-2.1 2.2-1.2 0-2.2-1-2.2-2.2zm-2.9 7.2c0 1.2-0.9 2.2-2.1 2.2-1.2 0-2.2-1-2.2-2.2 0-1.2 1-2.1 2.2-2.1 1.2 0 2.1 0.9 2.1 2.1zm10.1 0c0-1.2 1-2.1 2.2-2.1 1.2 0 2.1 0.9 2.1 2.1 0 1.2-0.9 2.2-2.1 2.2-1.2 0-2.2-1-2.2-2.2zm-10.1-14.4c0 1.2-0.9 2.2-2.1 2.2-1.2 0-2.2-1-2.2-2.2 0-1.2 1-2.1 2.2-2.1 1.2 0 2.1 0.9 2.1 2.1zm-14.4 0c0 0.9-0.5 1.7-1.3 2q-0.4 0.2-0.8 0.2c-0.9 0-1.7-0.6-2-1.3q-0.2-0.4-0.2-0.9 0-0.4 0.2-0.8c0.3-0.8 1.1-1.3 2-1.3q0.4 0 0.8 0.1c0.8 0.4 1.3 1.1 1.3 2zm17.3 36c0-1.2 1-2.2 2.2-2.2 1.2 0 2.1 1 2.1 2.2 0 1.2-0.9 2.1-2.1 2.1-1.2 0-2.2-0.9-2.2-2.1zm-2.9 7.2c0 1.2-0.9 2.1-2.1 2.1-1.2 0-2.2-0.9-2.2-2.1 0-1.2 1-2.2 2.2-2.2 1.2 0 2.1 1 2.1 2.2zm10.1 0c0-1.2 1-2.2 2.2-2.2 1.2 0 2.1 1 2.1 2.2 0 1.2-0.9 2.1-2.1 2.1-1.2 0-2.2-0.9-2.2-2.1zm-10.1-14.4c0 1.2-0.9 2.2-2.1 2.2-1.2 0-2.2-1-2.2-2.2 0-1.2 1-2.2 2.2-2.2 1.2 0 2.1 1 2.1 2.2zm-14.4 0c0 0.9-0.5 1.7-1.3 2q-0.4 0.2-0.8 0.2c-0.9 0-1.7-0.6-2-1.4q-0.2-0.4-0.2-0.8 0-0.5 0.2-0.8c0.3-0.8 1.1-1.4 2-1.4q0.4 0 0.8 0.2c0.8 0.3 1.3 1.1 1.3 2zm17.3 36c0-1.2 1-2.2 2.2-2.2 1.2 0 2.1 1 2.1 2.2 0 1.1-0.9 2.1-2.1 2.1-1.2 0-2.2-1-2.2-2.1zm-2.9 7.2c0 1.1-0.9 2.1-2.1 2.1-1.2 0-2.2-1-2.2-2.1 0-1.2 1-2.2 2.2-2.2 1.2 0 2.1 1 2.1 2.2zm14.4 0c0 1.1-0.9 2.1-2.1 2.1-1.2 0-2.2-1-2.2-2.1 0-1.2 1-2.2 2.2-2.2 1.2 0 2.1 1 2.1 2.2zm-14.4-14.4c0 1.2-0.9 2.1-2.1 2.1-1.2 0-2.2-0.9-2.2-2.1 0-1.2 1-2.2 2.2-2.2 1.2 0 2.1 1 2.1 2.2zm-14.4 0c0 0.9-0.5 1.6-1.3 2q-0.4 0.1-0.8 0.1c-0.9 0-1.7-0.5-2-1.3q-0.2-0.4-0.2-0.8 0-0.5 0.2-0.9c0.3-0.7 1.1-1.3 2-1.3q0.4 0 0.8 0.2c0.8 0.3 1.3 1.1 1.3 2zm7.1-51.2q0.1 0.4 0.1 0.8 0 0.5-0.1 0.9c-0.4 0.7-1.1 1.3-2 1.3q0 0 0 0c-0.9 0-1.7-0.6-2-1.3q-0.2-0.4-0.2-0.9 0-0.4 0.2-0.8c0.3-0.8 1.1-1.3 2-1.3q0 0 0 0c0.9 0 1.6 0.5 2 1.3zm-14.3 0.8c0 1.2-0.9 2.2-2.1 2.2-1.2 0-2.2-1-2.2-2.2 0-1.2 1-2.1 2.2-2.1 1.2 0 2.1 0.9 2.1 2.1zm14.3-15.2q0.1 0.4 0.1 0.8 0 0.5-0.1 0.9c-0.4 0.8-1.1 1.3-2 1.3q0 0 0 0c-0.9 0-1.7-0.5-2-1.3q-0.2-0.4-0.2-0.9 0-0.4 0.2-0.8c0.3-0.8 1.1-1.3 2-1.3q0 0 0 0c0.9 0 1.6 0.5 2 1.3zm-21.5 22.4c0 1.2-0.9 2.2-2.1 2.2-1.2 0-2.2-1-2.2-2.2 0-1.2 1-2.1 2.2-2.1 1.2 0 2.1 0.9 2.1 2.1zm14.4 0c0 1.2-0.9 2.2-2.1 2.2-1.2 0-2.2-1-2.2-2.2 0-1.2 1-2.1 2.2-2.1 1.2 0 2.1 0.9 2.1 2.1zm7.1 20.8q0.1 0.3 0.1 0.8 0 0.4-0.1 0.8c-0.4 0.8-1.1 1.3-2 1.3q0 0 0 0c-0.9 0-1.7-0.5-2-1.3q-0.2-0.4-0.2-0.8 0-0.5 0.2-0.8c0.3-0.8 1.1-1.4 2-1.4q0 0 0 0c0.9 0 1.6 0.6 2 1.4zm-14.3 0.8c0 1.2-0.9 2.1-2.1 2.1-1.2 0-2.2-0.9-2.2-2.1 0-1.2 1-2.2 2.2-2.2 1.2 0 2.1 1 2.1 2.2zm-14.4 0c0 1.2-0.9 2.1-2.1 2.1-1.2 0-2.2-0.9-2.2-2.1 0-1.2 1-2.2 2.2-2.2 1.2 0 2.1 1 2.1 2.2zm28.7-15.2q0.1 0.4 0.1 0.8 0 0.5-0.1 0.8c-0.4 0.8-1.1 1.4-2 1.4q0 0 0 0c-0.9 0-1.7-0.6-2-1.4q-0.2-0.3-0.2-0.8 0-0.4 0.2-0.8c0.3-0.8 1.1-1.4 2-1.4q0 0 0 0c0.9 0 1.6 0.6 2 1.4zm-14.3 0.8c0 1.2-0.9 2.2-2.1 2.2-1.2 0-2.2-1-2.2-2.2 0-1.2 1-2.2 2.2-2.2 1.2 0 2.1 1 2.1 2.2zm-14.4 0c0 1.2-0.9 2.2-2.1 2.2-1.2 0-2.2-1-2.2-2.2 0-1.2 1-2.2 2.2-2.2 1.2 0 2.1 1 2.1 2.2zm7.2 21.6c0 1.2-0.9 2.1-2.1 2.1-1.2 0-2.2-0.9-2.2-2.1 0-1.2 1-2.2 2.2-2.2 1.2 0 2.1 1 2.1 2.2zm14.4 0c0 1.2-0.9 2.1-2.1 2.1-1.2 0-2.2-0.9-2.2-2.1 0-1.2 1-2.2 2.2-2.2 1.2 0 2.1 1 2.1 2.2zm-14.4-14.4c0 1.2-0.9 2.2-2.1 2.2-1.2 0-2.2-1-2.2-2.2 0-1.2 1-2.2 2.2-2.2 1.2 0 2.1 1 2.1 2.2zm-14.4 0c0 1.2-0.9 2.2-2.1 2.2-1.2 0-2.2-1-2.2-2.2 0-1.2 1-2.2 2.2-2.2 1.2 0 2.1 1 2.1 2.2zm35.9 35.1q0.1 0.4 0.1 0.9 0 0.4-0.1 0.8c-0.4 0.8-1.1 1.3-2 1.3q0 0 0 0c-0.9 0-1.7-0.5-2-1.3q-0.2-0.4-0.2-0.8 0-0.5 0.2-0.9c0.3-0.8 1.1-1.3 2-1.3q0 0 0 0c0.9 0 1.6 0.5 2 1.3zm0-14.4q0.1 0.4 0.1 0.9 0 0.4-0.1 0.8c-0.4 0.8-1.1 1.3-2 1.3q0 0 0 0c-0.9 0-1.7-0.5-2-1.3q-0.2-0.4-0.2-0.8 0-0.5 0.2-0.9c0.3-0.7 1.1-1.3 2-1.3q0 0 0 0c0.9 0 1.6 0.6 2 1.3zm-14.3 0.9c0 1.2-0.9 2.1-2.1 2.1-1.2 0-2.2-0.9-2.2-2.1 0-1.2 1-2.2 2.2-2.2 1.2 0 2.1 1 2.1 2.2z"/></svg>