<?xml version="1.0" encoding="UTF-8"?>
<svg xmlns="http://www.w3.org/2000/svg" xmlns:xlink="http://www.w3.org/1999/xlink" width="18px" height="17px" viewBox="0 0 18 17" version="1.1">
<g id="surface1">
<path style=" stroke:none;fill-rule:nonzero;fill:rgb(0%,0%,0%);fill-opacity:1;" d="M 11.914062 4.992188 L 16.402344 5.695312 C 16.773438 5.75 17.085938 6.03125 17.207031 6.410156 C 17.324219 6.796875 17.226562 7.214844 16.960938 7.5 L 13.703125 10.894531 L 14.472656 15.761719 C 14.535156 16.160156 14.382812 16.566406 14.070312 16.800781 C 13.757812 17.035156 13.351562 17.066406 13.015625 16.878906 L 9.003906 14.601562 L 4.992188 16.878906 C 4.65625 17.066406 4.246094 17.035156 3.9375 16.800781 C 3.628906 16.566406 3.472656 16.160156 3.539062 15.761719 L 4.304688 10.894531 L 1.050781 7.5 C 0.78125 7.214844 0.683594 6.796875 0.804688 6.410156 C 0.921875 6.03125 1.230469 5.75 1.605469 5.695312 L 6.09375 4.992188 L 8.105469 0.597656 C 8.273438 0.230469 8.621094 0 9.003906 0 C 9.386719 0 9.738281 0.230469 9.902344 0.597656 Z M 11.914062 4.992188 "/>
</g>
</svg>
