<?xml version="1.0" encoding="UTF-8"?>
<svg xmlns="http://www.w3.org/2000/svg" xmlns:xlink="http://www.w3.org/1999/xlink" width="16px" height="16px" viewBox="0 0 16 16" version="1.1">
<g id="surface1">
<path style=" stroke:none;fill-rule:nonzero;fill:rgb(0%,0%,0%);fill-opacity:1;" d="M 8.003906 4.660156 C 5.730469 4.660156 3.902344 6.152344 3.902344 7.996094 C 3.902344 9.84375 5.730469 11.332031 8.003906 11.332031 C 10.277344 11.332031 12.105469 9.84375 12.105469 7.996094 C 12.105469 6.152344 10.277344 4.660156 8.003906 4.660156 Z M 8.003906 10.164062 C 6.535156 10.164062 5.335938 9.191406 5.335938 7.996094 C 5.335938 6.804688 6.53125 5.832031 8.003906 5.832031 C 9.472656 5.832031 10.667969 6.804688 10.667969 7.996094 C 10.667969 9.191406 9.472656 10.164062 8.003906 10.164062 Z M 13.230469 4.527344 C 13.230469 4.960938 12.804688 5.304688 12.277344 5.304688 C 11.746094 5.304688 11.316406 4.957031 11.316406 4.527344 C 11.316406 4.097656 11.746094 3.75 12.277344 3.75 C 12.804688 3.75 13.230469 4.097656 13.230469 4.527344 Z M 15.945312 5.316406 C 15.894531 4.273438 15.597656 3.351562 14.65625 2.589844 C 13.722656 1.832031 12.585938 1.59375 11.304688 1.539062 C 9.980469 1.476562 6.023438 1.476562 4.695312 1.539062 C 3.417969 1.589844 2.285156 1.824219 1.347656 2.589844 C 0.40625 3.347656 0.121094 4.273438 0.0546875 5.3125 C -0.0234375 6.386719 -0.0234375 9.601562 0.0546875 10.679688 C 0.117188 11.71875 0.40625 12.644531 1.347656 13.402344 C 2.285156 14.164062 3.414062 14.402344 4.695312 14.457031 C 6.023438 14.511719 9.980469 14.511719 11.304688 14.457031 C 12.585938 14.40625 13.722656 14.164062 14.65625 13.402344 C 15.59375 12.644531 15.882812 11.71875 15.945312 10.679688 C 16.027344 9.601562 16.027344 6.386719 15.945312 5.316406 Z M 14.246094 11.832031 C 13.964844 12.398438 13.429688 12.839844 12.722656 13.066406 C 11.664062 13.40625 9.164062 13.324219 8.003906 13.324219 C 6.839844 13.324219 4.335938 13.402344 3.285156 13.066406 C 2.585938 12.839844 2.042969 12.402344 1.769531 11.832031 C 1.347656 10.972656 1.441406 8.941406 1.441406 7.996094 C 1.441406 7.050781 1.347656 5.019531 1.769531 4.164062 C 2.039062 3.59375 2.585938 3.15625 3.285156 2.929688 C 4.339844 2.589844 6.839844 2.664062 8.003906 2.664062 C 9.164062 2.664062 11.667969 2.589844 12.722656 2.929688 C 13.417969 3.15625 13.960938 3.59375 14.246094 4.164062 C 14.660156 5.019531 14.5625 7.050781 14.5625 7.996094 C 14.5625 8.941406 14.660156 10.976562 14.246094 11.832031 Z M 14.246094 11.832031 "/>
</g>
</svg>
